<?xml version="1.0" standalone="no"?>
<!DOCTYPE svg PUBLIC "-//W3C//DTD SVG 20010904//EN"
 "http://www.w3.org/TR/2001/REC-SVG-20010904/DTD/svg10.dtd">
<svg version="1.0" xmlns="http://www.w3.org/2000/svg"
 width="280.000000pt" height="280.000000pt" viewBox="0 0 280.000000 280.000000"
 preserveAspectRatio="xMidYMid meet">
<metadata>
Created by potrace 1.11, written by Peter Selinger 2001-2013
</metadata>
<g transform="translate(0.000000,280.000000) scale(0.100000,-0.100000)"
fill="#000000" stroke="none">
<path d="M1375 2565 c-14 -33 -38 -87 -51 -120 -14 -33 -31 -73 -39 -90 -7
-16 -36 -84 -63 -151 -28 -66 -62 -145 -75 -175 -13 -30 -44 -100 -68 -156
-38 -91 -46 -103 -69 -104 -29 -1 -89 -5 -175 -13 -33 -3 -89 -7 -125 -10 -36
-3 -90 -8 -120 -11 -89 -9 -182 -17 -230 -20 -133 -8 -226 -18 -233 -24 -4 -5
7 -19 25 -33 18 -14 48 -39 66 -56 18 -16 52 -46 75 -65 23 -19 54 -46 68 -58
23 -22 120 -107 173 -152 65 -56 132 -114 146 -127 8 -8 42 -37 73 -64 65 -55
65 -56 33 -178 -15 -55 -19 -72 -31 -133 -3 -16 -12 -52 -20 -80 -8 -27 -17
-66 -20 -85 -3 -19 -10 -48 -15 -65 -5 -16 -14 -52 -20 -80 -5 -27 -17 -79
-25 -115 -9 -36 -18 -74 -20 -85 -7 -37 -13 -62 -23 -99 -6 -20 -9 -36 -7 -36
3 0 109 64 237 142 128 78 244 148 258 155 14 8 87 52 164 99 l139 85 26 -18
c38 -26 62 -41 96 -58 17 -9 42 -23 57 -33 61 -40 567 -346 596 -361 22 -12
23 -11 18 11 -4 12 -11 39 -16 58 -9 35 -99 419 -105 449 -2 9 -8 34 -13 56
-6 22 -13 51 -16 65 -6 30 -10 46 -31 135 -27 114 -27 117 -8 134 37 33 196
172 448 391 203 176 229 200 224 204 -2 2 -49 7 -104 11 -55 3 -118 8 -140 10
-22 3 -74 7 -115 10 -41 3 -92 8 -113 11 -20 3 -63 7 -95 9 -31 2 -93 7 -137
10 -127 10 -168 13 -192 14 -13 1 -24 10 -28 24 -4 12 -15 40 -25 62 -10 22
-30 69 -45 105 -15 36 -33 79 -41 95 -44 100 -96 221 -98 230 -1 6 -9 26 -18
45 -50 108 -66 149 -60 154 3 3 0 6 -6 6 -7 0 -12 6 -12 13 -1 6 -11 37 -24
67 l-24 55 -27 -60z m84 -605 c29 -69 56 -134 61 -145 5 -11 23 -54 40 -95 53
-129 59 -140 77 -141 10 0 29 -2 43 -4 14 -2 59 -6 100 -10 41 -3 91 -8 110
-10 35 -3 216 -17 257 -19 34 -2 36 -12 7 -35 -14 -11 -56 -47 -93 -80 -36
-32 -86 -76 -111 -97 -63 -55 -106 -93 -153 -136 l-40 -37 16 -63 c9 -35 19
-74 21 -88 2 -14 12 -54 21 -90 9 -36 19 -78 21 -94 2 -16 10 -52 19 -81 17
-59 27 -125 19 -125 -3 0 -24 13 -47 28 -23 15 -51 33 -62 39 -11 7 -98 58
-192 115 l-172 103 -1 599 c0 330 2 597 4 595 2 -2 27 -60 55 -129z"/>
</g>
</svg>
